<mxfile host="app.diagrams.net" modified="2023-04-17T07:07:43.947Z" agent="Mozilla/5.0 (X11; Ubuntu; Linux x86_64; rv:109.0) Gecko/20100101 Firefox/111.0" etag="ZgNXqHOssc0FroB8Koua" version="21.1.8" type="device">
  <diagram id="cAn9xAq9_H7F9-F0umVe" name="Page-1">
    <mxGraphModel dx="677" dy="1895" grid="1" gridSize="10" guides="1" tooltips="1" connect="1" arrows="1" fold="1" page="1" pageScale="1" pageWidth="850" pageHeight="1100" math="0" shadow="0">
      <root>
        <mxCell id="0" />
        <mxCell id="1" parent="0" />
        <mxCell id="TKqRipgcL9BN7cW-fJwY-2" value="" style="rounded=0;whiteSpace=wrap;html=1;" vertex="1" parent="1">
          <mxGeometry x="120" y="-20" width="530" height="730" as="geometry" />
        </mxCell>
        <mxCell id="cdoylePUE_jaW1Q5moBi-1" value="" style="rounded=0;whiteSpace=wrap;html=1;" parent="1" vertex="1">
          <mxGeometry x="170" y="110" width="120" height="250" as="geometry" />
        </mxCell>
        <mxCell id="cdoylePUE_jaW1Q5moBi-2" value="" style="endArrow=none;html=1;exitX=0.017;exitY=0.159;exitDx=0;exitDy=0;exitPerimeter=0;entryX=1;entryY=0.159;entryDx=0;entryDy=0;entryPerimeter=0;" parent="1" source="cdoylePUE_jaW1Q5moBi-1" target="cdoylePUE_jaW1Q5moBi-1" edge="1">
          <mxGeometry width="50" height="50" relative="1" as="geometry">
            <mxPoint x="400" y="330" as="sourcePoint" />
            <mxPoint x="450" y="280" as="targetPoint" />
          </mxGeometry>
        </mxCell>
        <mxCell id="cdoylePUE_jaW1Q5moBi-3" value="User" style="text;html=1;strokeColor=none;fillColor=none;align=center;verticalAlign=middle;whiteSpace=wrap;rounded=0;" parent="1" vertex="1">
          <mxGeometry x="210" y="120" width="40" height="20" as="geometry" />
        </mxCell>
        <mxCell id="cdoylePUE_jaW1Q5moBi-5" value="" style="rounded=0;whiteSpace=wrap;html=1;" parent="1" vertex="1">
          <mxGeometry x="470" y="110" width="120" height="220" as="geometry" />
        </mxCell>
        <mxCell id="cdoylePUE_jaW1Q5moBi-6" value="" style="endArrow=none;html=1;exitX=-0.003;exitY=0.165;exitDx=0;exitDy=0;exitPerimeter=0;entryX=0.997;entryY=0.165;entryDx=0;entryDy=0;entryPerimeter=0;" parent="1" source="cdoylePUE_jaW1Q5moBi-5" target="cdoylePUE_jaW1Q5moBi-5" edge="1">
          <mxGeometry width="50" height="50" relative="1" as="geometry">
            <mxPoint x="400" y="330" as="sourcePoint" />
            <mxPoint x="591" y="155" as="targetPoint" />
          </mxGeometry>
        </mxCell>
        <mxCell id="cdoylePUE_jaW1Q5moBi-7" value="Plan" style="text;html=1;strokeColor=none;fillColor=none;align=center;verticalAlign=middle;whiteSpace=wrap;rounded=0;" parent="1" vertex="1">
          <mxGeometry x="510" y="120" width="40" height="20" as="geometry" />
        </mxCell>
        <mxCell id="cdoylePUE_jaW1Q5moBi-9" value="" style="endArrow=none;html=1;entryX=-0.01;entryY=0.555;entryDx=0;entryDy=0;entryPerimeter=0;" parent="1" target="cdoylePUE_jaW1Q5moBi-5" edge="1">
          <mxGeometry width="50" height="50" relative="1" as="geometry">
            <mxPoint x="293" y="232" as="sourcePoint" />
            <mxPoint x="450" y="280" as="targetPoint" />
          </mxGeometry>
        </mxCell>
        <mxCell id="cdoylePUE_jaW1Q5moBi-11" value="1" style="text;html=1;strokeColor=none;fillColor=none;align=center;verticalAlign=middle;whiteSpace=wrap;rounded=0;" parent="1" vertex="1">
          <mxGeometry x="290" y="210" width="40" height="20" as="geometry" />
        </mxCell>
        <mxCell id="cdoylePUE_jaW1Q5moBi-12" value="0..*" style="text;html=1;strokeColor=none;fillColor=none;align=center;verticalAlign=middle;whiteSpace=wrap;rounded=0;" parent="1" vertex="1">
          <mxGeometry x="425" y="210" width="40" height="20" as="geometry" />
        </mxCell>
        <mxCell id="cdoylePUE_jaW1Q5moBi-13" value="Shares / Views" style="text;html=1;strokeColor=none;fillColor=none;align=center;verticalAlign=middle;whiteSpace=wrap;rounded=0;" parent="1" vertex="1">
          <mxGeometry x="340" y="200" width="60" height="40" as="geometry" />
        </mxCell>
        <mxCell id="cdoylePUE_jaW1Q5moBi-14" value="" style="endArrow=none;html=1;exitX=0.5;exitY=1;exitDx=0;exitDy=0;" parent="1" source="cdoylePUE_jaW1Q5moBi-49" edge="1">
          <mxGeometry width="50" height="50" relative="1" as="geometry">
            <mxPoint x="240" y="420" as="sourcePoint" />
            <mxPoint x="350" y="460" as="targetPoint" />
          </mxGeometry>
        </mxCell>
        <mxCell id="cdoylePUE_jaW1Q5moBi-15" value="" style="rounded=0;whiteSpace=wrap;html=1;" parent="1" vertex="1">
          <mxGeometry x="300" y="460" width="120" height="220" as="geometry" />
        </mxCell>
        <mxCell id="cdoylePUE_jaW1Q5moBi-17" value="" style="endArrow=none;html=1;entryX=1.02;entryY=0.201;entryDx=0;entryDy=0;entryPerimeter=0;" parent="1" target="cdoylePUE_jaW1Q5moBi-15" edge="1">
          <mxGeometry width="50" height="50" relative="1" as="geometry">
            <mxPoint x="302" y="504" as="sourcePoint" />
            <mxPoint x="450" y="380" as="targetPoint" />
          </mxGeometry>
        </mxCell>
        <mxCell id="cdoylePUE_jaW1Q5moBi-18" value="Guide" style="text;html=1;strokeColor=none;fillColor=none;align=center;verticalAlign=middle;whiteSpace=wrap;rounded=0;" parent="1" vertex="1">
          <mxGeometry x="340" y="470" width="40" height="20" as="geometry" />
        </mxCell>
        <mxCell id="cdoylePUE_jaW1Q5moBi-19" value="Name" style="text;html=1;strokeColor=none;fillColor=none;align=center;verticalAlign=middle;whiteSpace=wrap;rounded=0;" parent="1" vertex="1">
          <mxGeometry x="310" y="520" width="40" height="20" as="geometry" />
        </mxCell>
        <mxCell id="cdoylePUE_jaW1Q5moBi-20" value="1" style="text;html=1;strokeColor=none;fillColor=none;align=center;verticalAlign=middle;whiteSpace=wrap;rounded=0;" parent="1" vertex="1">
          <mxGeometry x="250" y="370" width="40" height="20" as="geometry" />
        </mxCell>
        <mxCell id="cdoylePUE_jaW1Q5moBi-21" value="1" style="text;html=1;strokeColor=none;fillColor=none;align=center;verticalAlign=middle;whiteSpace=wrap;rounded=0;" parent="1" vertex="1">
          <mxGeometry x="330" y="430" width="40" height="20" as="geometry" />
        </mxCell>
        <mxCell id="cdoylePUE_jaW1Q5moBi-22" value="Mobile" style="text;html=1;strokeColor=none;fillColor=none;align=center;verticalAlign=middle;whiteSpace=wrap;rounded=0;" parent="1" vertex="1">
          <mxGeometry x="310" y="540" width="40" height="20" as="geometry" />
        </mxCell>
        <mxCell id="cdoylePUE_jaW1Q5moBi-23" value="Insta_id" style="text;html=1;strokeColor=none;fillColor=none;align=center;verticalAlign=middle;whiteSpace=wrap;rounded=0;" parent="1" vertex="1">
          <mxGeometry x="313" y="560" width="40" height="20" as="geometry" />
        </mxCell>
        <mxCell id="cdoylePUE_jaW1Q5moBi-25" value="City" style="text;html=1;strokeColor=none;fillColor=none;align=center;verticalAlign=middle;whiteSpace=wrap;rounded=0;" parent="1" vertex="1">
          <mxGeometry x="305" y="580" width="40" height="20" as="geometry" />
        </mxCell>
        <mxCell id="cdoylePUE_jaW1Q5moBi-26" style="edgeStyle=orthogonalEdgeStyle;rounded=0;orthogonalLoop=1;jettySize=auto;html=1;exitX=0.5;exitY=1;exitDx=0;exitDy=0;" parent="1" source="cdoylePUE_jaW1Q5moBi-25" target="cdoylePUE_jaW1Q5moBi-25" edge="1">
          <mxGeometry relative="1" as="geometry" />
        </mxCell>
        <mxCell id="cdoylePUE_jaW1Q5moBi-27" value="Fees" style="text;html=1;strokeColor=none;fillColor=none;align=center;verticalAlign=middle;whiteSpace=wrap;rounded=0;" parent="1" vertex="1">
          <mxGeometry x="308" y="600" width="40" height="20" as="geometry" />
        </mxCell>
        <mxCell id="cdoylePUE_jaW1Q5moBi-29" value="Name" style="text;html=1;strokeColor=none;fillColor=none;align=center;verticalAlign=middle;whiteSpace=wrap;rounded=0;" parent="1" vertex="1">
          <mxGeometry x="180" y="170" width="40" height="20" as="geometry" />
        </mxCell>
        <mxCell id="cdoylePUE_jaW1Q5moBi-30" value="Mobile" style="text;html=1;strokeColor=none;fillColor=none;align=center;verticalAlign=middle;whiteSpace=wrap;rounded=0;" parent="1" vertex="1">
          <mxGeometry x="180" y="190" width="40" height="20" as="geometry" />
        </mxCell>
        <mxCell id="cdoylePUE_jaW1Q5moBi-31" value="Insta_id" style="text;html=1;strokeColor=none;fillColor=none;align=center;verticalAlign=middle;whiteSpace=wrap;rounded=0;" parent="1" vertex="1">
          <mxGeometry x="185" y="210" width="40" height="20" as="geometry" />
        </mxCell>
        <mxCell id="cdoylePUE_jaW1Q5moBi-32" value="City" style="text;html=1;strokeColor=none;fillColor=none;align=center;verticalAlign=middle;whiteSpace=wrap;rounded=0;" parent="1" vertex="1">
          <mxGeometry x="175" y="230" width="40" height="20" as="geometry" />
        </mxCell>
        <mxCell id="cdoylePUE_jaW1Q5moBi-34" value="" style="endArrow=none;html=1;entryX=0.997;entryY=0.668;entryDx=0;entryDy=0;entryPerimeter=0;" parent="1" target="cdoylePUE_jaW1Q5moBi-1" edge="1">
          <mxGeometry width="50" height="50" relative="1" as="geometry">
            <mxPoint x="168" y="277" as="sourcePoint" />
            <mxPoint x="290" y="290" as="targetPoint" />
          </mxGeometry>
        </mxCell>
        <mxCell id="cdoylePUE_jaW1Q5moBi-36" value="Share plan" style="text;html=1;strokeColor=none;fillColor=none;align=center;verticalAlign=middle;whiteSpace=wrap;rounded=0;" parent="1" vertex="1">
          <mxGeometry x="168" y="281" width="80" height="20" as="geometry" />
        </mxCell>
        <mxCell id="cdoylePUE_jaW1Q5moBi-37" value="View plan" style="text;html=1;strokeColor=none;fillColor=none;align=center;verticalAlign=middle;whiteSpace=wrap;rounded=0;" parent="1" vertex="1">
          <mxGeometry x="170" y="300" width="70" height="20" as="geometry" />
        </mxCell>
        <mxCell id="cdoylePUE_jaW1Q5moBi-40" value="Become a guide" style="text;html=1;strokeColor=none;fillColor=none;align=center;verticalAlign=middle;whiteSpace=wrap;rounded=0;" parent="1" vertex="1">
          <mxGeometry x="172" y="320" width="100" height="20" as="geometry" />
        </mxCell>
        <mxCell id="cdoylePUE_jaW1Q5moBi-49" value="View Guides" style="text;html=1;strokeColor=none;fillColor=none;align=center;verticalAlign=middle;whiteSpace=wrap;rounded=0;" parent="1" vertex="1">
          <mxGeometry x="171" y="340" width="85" height="20" as="geometry" />
        </mxCell>
        <mxCell id="-p-a2U9rW47Tx4mQ7Gk5-2" value="Languages Known" style="text;html=1;strokeColor=none;fillColor=none;align=center;verticalAlign=middle;whiteSpace=wrap;rounded=0;" parent="1" vertex="1">
          <mxGeometry x="304" y="620" width="110" height="20" as="geometry" />
        </mxCell>
        <mxCell id="-p-a2U9rW47Tx4mQ7Gk5-3" value="Start place" style="text;html=1;strokeColor=none;fillColor=none;align=center;verticalAlign=middle;whiteSpace=wrap;rounded=0;" parent="1" vertex="1">
          <mxGeometry x="484" y="160" width="60" height="20" as="geometry" />
        </mxCell>
        <mxCell id="-p-a2U9rW47Tx4mQ7Gk5-4" value="Destination" style="text;html=1;strokeColor=none;fillColor=none;align=center;verticalAlign=middle;whiteSpace=wrap;rounded=0;" parent="1" vertex="1">
          <mxGeometry x="494" y="180" width="40" height="20" as="geometry" />
        </mxCell>
        <mxCell id="-p-a2U9rW47Tx4mQ7Gk5-5" value="Travel means" style="text;html=1;strokeColor=none;fillColor=none;align=center;verticalAlign=middle;whiteSpace=wrap;rounded=0;" parent="1" vertex="1">
          <mxGeometry x="479" y="200" width="80" height="20" as="geometry" />
        </mxCell>
        <mxCell id="-p-a2U9rW47Tx4mQ7Gk5-6" value="Tour duration" style="text;html=1;strokeColor=none;fillColor=none;align=center;verticalAlign=middle;whiteSpace=wrap;rounded=0;" parent="1" vertex="1">
          <mxGeometry x="478" y="220" width="80" height="20" as="geometry" />
        </mxCell>
        <mxCell id="-p-a2U9rW47Tx4mQ7Gk5-7" value="Tour details" style="text;html=1;strokeColor=none;fillColor=none;align=center;verticalAlign=middle;whiteSpace=wrap;rounded=0;" parent="1" vertex="1">
          <mxGeometry x="480" y="240" width="70" height="25" as="geometry" />
        </mxCell>
        <mxCell id="-p-a2U9rW47Tx4mQ7Gk5-9" style="edgeStyle=orthogonalEdgeStyle;rounded=0;orthogonalLoop=1;jettySize=auto;html=1;exitX=0.5;exitY=1;exitDx=0;exitDy=0;" parent="1" source="-p-a2U9rW47Tx4mQ7Gk5-6" target="-p-a2U9rW47Tx4mQ7Gk5-6" edge="1">
          <mxGeometry relative="1" as="geometry" />
        </mxCell>
        <mxCell id="-p-a2U9rW47Tx4mQ7Gk5-11" value="Some advice" style="text;html=1;strokeColor=none;fillColor=none;align=center;verticalAlign=middle;whiteSpace=wrap;rounded=0;" parent="1" vertex="1">
          <mxGeometry x="480" y="265" width="80" height="20" as="geometry" />
        </mxCell>
        <mxCell id="-p-a2U9rW47Tx4mQ7Gk5-12" value="isGuide" style="text;html=1;strokeColor=none;fillColor=none;align=center;verticalAlign=middle;whiteSpace=wrap;rounded=0;" parent="1" vertex="1">
          <mxGeometry x="290" y="390" width="40" height="20" as="geometry" />
        </mxCell>
        <mxCell id="TKqRipgcL9BN7cW-fJwY-3" value="&lt;font style=&quot;font-size: 18px;&quot;&gt;Class Diagram&lt;/font&gt;" style="text;html=1;align=center;verticalAlign=middle;resizable=0;points=[];autosize=1;strokeColor=none;fillColor=none;" vertex="1" parent="1">
          <mxGeometry x="315" y="25" width="140" height="40" as="geometry" />
        </mxCell>
      </root>
    </mxGraphModel>
  </diagram>
</mxfile>
